<svg width="28" height="12" viewBox="0 0 28 12" fill="none" xmlns="http://www.w3.org/2000/svg">
<path d="M5.91978 2.08147C6.23077 1.69248 6.44181 1.17019 6.38615 0.636475C5.9309 0.659112 5.37536 0.936818 5.05373 1.32611C4.76494 1.65947 4.50933 2.20363 4.57597 2.71498C5.08701 2.7593 5.59757 2.45954 5.91978 2.08147Z" fill="#000008"/>
<path d="M6.38036 2.81482C5.63821 2.77062 5.0072 3.23603 4.65278 3.23603C4.29817 3.23603 3.75545 2.8371 3.16844 2.84785C2.40442 2.85907 1.6955 3.29106 1.30779 3.97812C0.510343 5.35257 1.09735 7.39136 1.87282 8.51078C2.24941 9.06459 2.70327 9.67437 3.30129 9.65247C3.86632 9.6303 4.08779 9.2866 4.77461 9.2866C5.46092 9.2866 5.66042 9.65247 6.25854 9.64139C6.8788 9.6303 7.26658 9.0873 7.64317 8.53295C8.07518 7.90164 8.25204 7.29205 8.26316 7.25859C8.25204 7.2475 7.06711 6.79294 7.05613 5.42991C7.04494 4.28862 7.98642 3.74576 8.03073 3.7121C7.49907 2.92576 6.66836 2.8371 6.38036 2.81482Z" fill="#000008"/>
<path d="M12.8424 1.27028C14.4555 1.27028 15.5787 2.38217 15.5787 4.00101C15.5787 5.62563 14.4324 6.7433 12.802 6.7433H11.016V9.58348H9.72566V1.27028L12.8424 1.27028ZM11.016 5.66018H12.4966C13.6201 5.66018 14.2595 5.05534 14.2595 4.00679C14.2595 2.95834 13.6201 2.35917 12.5024 2.35917H11.016V5.66018Z" fill="#000008"/>
<path d="M15.9158 7.86095C15.9158 6.80084 16.7281 6.14989 18.1685 6.06921L19.8276 5.97131V5.50471C19.8276 4.83064 19.3724 4.42737 18.6121 4.42737C17.8918 4.42737 17.4424 4.77296 17.3331 5.31458H16.1579C16.227 4.2199 17.1602 3.41338 18.6581 3.41338C20.1271 3.41338 21.0661 4.19112 21.0661 5.4067V9.58347H19.8736V8.58681H19.8449C19.4935 9.26088 18.7272 9.68715 17.9323 9.68715C16.7455 9.68715 15.9158 8.94973 15.9158 7.86095ZM19.8276 7.31367V6.83551L18.3354 6.92764C17.5922 6.97953 17.1717 7.3079 17.1717 7.8264C17.1717 8.35634 17.6096 8.70204 18.2779 8.70204C19.1477 8.70204 19.8276 8.10287 19.8276 7.31367Z" fill="#000008"/>
<path d="M22.192 11.813V10.8048C22.284 10.8278 22.4914 10.8278 22.5952 10.8278C23.1712 10.8278 23.4824 10.5859 23.6724 9.96373C23.6724 9.95217 23.782 9.59502 23.782 9.58925L21.5929 3.52283H22.9408L24.4734 8.45435H24.4963L26.0289 3.52283H27.3423L25.0723 9.90028C24.5541 11.3694 23.9549 11.8418 22.699 11.8418C22.5952 11.8418 22.284 11.8303 22.192 11.813Z" fill="#000008"/>
</svg>
