<svg width="22" height="22" viewBox="0 0 22 22" fill="none" xmlns="http://www.w3.org/2000/svg">
<path d="M20.7961 19.2041L16.3439 14.75C17.6788 13.0104 18.302 10.8282 18.0871 8.64607C17.8723 6.4639 16.8354 4.44516 15.1868 2.99937C13.5383 1.55357 11.4015 0.788988 9.20996 0.860713C7.01841 0.932437 4.9362 1.8351 3.3857 3.38559C1.83521 4.93608 0.932551 7.0183 0.860827 9.20985C0.789103 11.4014 1.55369 13.5382 2.99948 15.1867C4.44527 16.8353 6.46401 17.8722 8.64618 18.087C10.8284 18.3019 13.0106 17.6787 14.7501 16.3438L19.2061 20.8006C19.3107 20.9053 19.4349 20.9883 19.5717 21.0449C19.7084 21.1016 19.8549 21.1307 20.0029 21.1307C20.1509 21.1307 20.2975 21.1016 20.4342 21.0449C20.5709 20.9883 20.6952 20.9053 20.7998 20.8006C20.9044 20.696 20.9875 20.5717 21.0441 20.435C21.1007 20.2983 21.1299 20.1517 21.1299 20.0037C21.1299 19.8558 21.1007 19.7092 21.0441 19.5725C20.9875 19.4358 20.9044 19.3115 20.7998 19.2069L20.7961 19.2041ZM3.12512 9.5C3.12512 8.23915 3.499 7.0066 4.1995 5.95824C4.89999 4.90988 5.89563 4.09278 7.06051 3.61027C8.22539 3.12776 9.50719 3.00151 10.7438 3.2475C11.9804 3.49348 13.1164 4.10064 14.0079 4.9922C14.8995 5.88376 15.5066 7.01967 15.7526 8.2563C15.9986 9.49293 15.8724 10.7747 15.3898 11.9396C14.9073 13.1045 14.0902 14.1001 13.0419 14.8006C11.9935 15.5011 10.761 15.875 9.50012 15.875C7.80989 15.8733 6.1894 15.2011 4.99423 14.0059C3.79906 12.8107 3.12685 11.1902 3.12512 9.5Z" fill="black" fill-opacity="0.4"/>
</svg>
